<?xml version="1.0" standalone="no"?>
<!DOCTYPE svg PUBLIC "-//W3C//DTD SVG 20010904//EN"
 "http://www.w3.org/TR/2001/REC-SVG-20010904/DTD/svg10.dtd">
<svg version="1.0" xmlns="http://www.w3.org/2000/svg"
 width="300.000000pt" height="300.000000pt" viewBox="0 0 300.000000 300.000000"
 preserveAspectRatio="xMidYMid meet">
<metadata>
Created by potrace 1.11, written by Peter Selinger 2001-2013
</metadata>
<g transform="translate(0.000000,300.000000) scale(0.100000,-0.100000)"
fill="#000000" stroke="none">
<path d="M667 2704 c-1 -1 -33 -4 -71 -8 -148 -14 -326 -65 -462 -132 l-59
-30 -1 -154 c0 -85 2 -159 4 -163 2 -4 14 -2 25 6 66 43 275 110 412 132 62
10 306 13 366 5 30 -5 78 -11 107 -14 90 -10 287 -55 557 -127 257 -68 454
-113 564 -127 31 -4 133 -7 226 -6 152 0 181 3 268 27 101 28 250 93 302 133
l30 23 -1 153 c-1 84 -2 155 -3 158 0 3 -47 -17 -104 -45 -159 -79 -319 -117
-497 -118 -72 -1 -216 9 -262 18 -12 3 -40 7 -63 10 -59 9 -184 40 -428 106
-371 101 -508 131 -667 145 -69 6 -238 12 -243 8z"/>
<path d="M748 1786 c-1 -2 -46 -6 -98 -9 -165 -9 -338 -54 -494 -126 l-81 -38
0 -161 c0 -89 0 -162 1 -162 1 0 33 14 71 31 194 88 353 122 563 123 78 0 225
-10 273 -19 15 -3 54 -10 87 -15 33 -6 72 -13 87 -16 15 -3 106 -25 203 -50
387 -100 557 -142 595 -148 22 -4 65 -11 95 -17 307 -57 614 -9 830 130 l55
36 0 155 c0 95 -4 155 -10 155 -6 0 -48 -19 -95 -42 -168 -82 -313 -116 -510
-118 -74 0 -151 2 -170 6 -19 4 -55 9 -80 12 -25 3 -81 13 -125 22 -44 9 -88
19 -98 21 -10 2 -125 32 -255 68 -413 113 -551 142 -722 152 -52 3 -100 7
-107 9 -6 2 -13 2 -15 1z"/>
<path d="M677 924 c-1 -1 -34 -4 -74 -8 -100 -8 -210 -32 -309 -67 -91 -32
-213 -88 -215 -98 -4 -17 -5 -298 -1 -308 3 -9 21 -4 60 16 56 28 181 76 225
86 143 32 206 39 352 39 209 1 345 -21 675 -106 449 -115 508 -129 614 -148
154 -26 206 -31 321 -30 101 1 131 3 195 15 19 4 46 9 59 12 62 11 200 66 274
108 l82 47 0 157 c0 86 -4 157 -8 158 -3 1 -53 -20 -109 -47 -211 -99 -394
-129 -657 -106 -137 12 -354 60 -616 136 -177 51 -388 101 -530 125 -67 11
-330 26 -338 19z"/>
</g>
</svg>
